<svg width="741" height="682" viewBox="0 0 741 682" fill="none" xmlns="http://www.w3.org/2000/svg">
<rect width="741" height="682" fill="#F8F8F8"/>
<path fill-rule="evenodd" clip-rule="evenodd" d="M376.041 132.26C432.822 132.26 491.552 176.272 512.365 204.357C529.864 227.97 539.286 334.745 539.286 406.905C539.286 421.997 547.615 450.446 545.184 464.882C536.278 517.781 497.475 562.146 420.677 562.146C343.878 562.146 288.815 531.704 231.733 449.973C204.036 449.973 190.613 428.733 190.418 395.214C190.223 361.695 217.152 349.5 217.152 349.5C217.152 349.5 207.551 217.221 231.733 182.782C255.914 148.342 319.261 132.26 376.041 132.26Z" fill="#FFDBB4"/>
<path fill-rule="evenodd" clip-rule="evenodd" d="M352.147 113.556C387.997 109.926 423.126 112.976 458.457 119.287C461.157 119.776 462.687 121.547 463.256 123.676C479.897 124.436 496.556 125.657 513.175 126.567C519.206 126.897 522.626 132.856 519.876 138.237C519.327 139.306 518.755 140.346 518.175 141.386L518.904 141.146C523.904 139.542 529.304 138.751 534.175 141.297C540.375 144.537 542.807 151.686 541.437 158.266C541.086 159.946 540.496 161.556 539.826 163.127C541.186 163.037 542.556 163.067 543.916 163.247C551.156 164.207 556.536 169.757 556.916 177.147C557.476 188.306 550.286 199.627 541.816 207.616C543.045 210.147 543.517 213.127 543.006 216.147C541.986 222.117 537.587 225.692 532.489 228.024C534.615 234.775 535.62 241.833 535.027 249.046C534.829 251.454 532.724 253.443 530.501 253.931C538.787 276.745 542.981 301.239 545.997 325.106C548.147 342.087 549.206 359.167 549.335 376.276C549.399 384 549.271 391.733 548.947 399.459L548.816 402.356C548.416 410.707 548.397 419.476 546.897 427.737C552.017 436.446 554.076 447.257 554.946 457.016C556.026 469.096 554.317 481.556 550.506 493.047C536.126 536.466 492.726 563.866 449.135 570.987C408.786 577.577 362.096 568.707 338.516 532.056C338.146 531.476 338.937 530.997 339.397 531.377C356.267 545.096 375.836 551.216 397.097 554.196C433.856 559.337 475.175 550.616 504.675 527.497C518.835 516.397 529.045 500.237 533.536 482.846C535.826 473.957 536.617 464.686 535.716 455.537C534.796 446.257 530.686 438.337 528.096 429.567C527.226 426.606 528.147 423.856 529.957 421.897C530.466 414.776 531.667 407.596 532.126 400.497C532.636 392.426 532.947 384.356 533.057 376.276C533.267 359.516 532.567 342.726 531.157 326.037C528.577 295.476 521.727 265.657 517.707 235.356C516.218 236.691 514.084 237.239 511.848 236.073L511.617 235.946L510.397 235.247C510.327 235.247 510.246 235.257 510.175 235.266C501.826 236.077 493.166 234.917 485.166 232.426C476.795 229.827 469.026 225.827 462.085 220.497C460.766 227.186 460.216 233.946 460.207 240.766C460.197 245.026 455.686 247.237 452.106 245.417C436.236 237.356 421.076 228.067 406.686 217.627C405.005 226.237 403.327 234.846 401.636 243.466C400.987 246.787 396.756 248.127 394.046 246.547C383.267 240.276 373.956 232.067 366.376 222.306C364.863 225.2 363.345 228.093 361.817 230.981L359.516 235.306C357.246 239.556 354.206 244.257 349.236 245.616C343.976 247.056 339.586 243.647 337.817 238.886C337.277 237.407 336.777 235.886 336.317 234.356C331.836 244.587 326.776 254.587 321.056 264.127C312.476 278.436 302.175 291.186 291.906 304.266C288.786 308.237 283.446 304.446 283.016 300.587C282.766 298.317 282.556 296.037 282.375 293.766C276.391 305.842 270.148 317.805 263.345 329.421L264.319 333.238C267.126 344.516 269.456 355.874 271.99 367.212C272.808 370.87 270.864 376.1 266.59 376.723C261.484 377.467 256.653 380.076 251.423 378.281C245.72 376.323 244.593 371.394 241.901 366.722C241.364 365.791 240.739 364.936 240.067 364.124L239.896 364.346C239.476 364.897 238.476 364.297 238.726 363.667L239.019 362.939C236.706 360.484 233.938 358.436 231.393 356.233C225.345 355.214 218.542 356.33 214.375 358.787C204.885 364.386 200.526 375.926 200.436 386.537C200.326 398.957 204.175 412.917 210.675 423.537C213.536 428.207 217.456 432.426 222.635 434.497C227.776 436.556 233.346 435.917 238.576 437.856C242.036 439.147 244.166 442.987 242.076 446.466C241.936 446.707 241.776 446.926 241.625 447.157L243.181 449.221C244.251 450.651 245.366 452.183 246.406 453.776C249.066 456.837 251.866 459.787 254.576 462.797C259.585 468.346 264.446 474.047 269.375 479.676C274.026 484.987 278.946 489.976 284.016 494.886C288.806 499.537 294.786 503.446 299.186 508.407C303.465 513.247 304.626 521.696 297.585 524.497C289.796 527.603 282.901 520.323 277.657 515.47L277.436 515.266C267.824 506.421 259.144 496.313 252.251 485.184C245.423 489.832 235.547 490.276 228.748 485.629C225.17 483.184 222.425 479.075 221.091 474.605C219.833 474.887 218.576 475.052 217.35 475.033C216.719 475.399 216.086 475.755 215.446 476.087C210.375 478.726 204.146 477.547 201.826 471.936C199.714 466.842 201.891 461.057 203.794 456.15L204.186 455.136C205.266 452.337 206.456 449.287 207.936 446.417C203.816 443.317 200.295 439.466 197.316 435.087C187.306 420.337 182.306 398.766 184.516 381.167C185.846 370.547 190.835 359.547 199.005 352.386L198.706 351.606C196.416 345.797 194.335 339.966 192.986 333.827C191.406 326.647 190.635 319.207 189.936 311.897C188.456 296.457 188.856 280.667 190.826 265.287C194.526 236.337 203.906 207.917 220.556 183.827C215.835 178.176 212.096 171.526 214.045 163.877C214.936 160.366 216.965 157.037 220.026 155.026C221.715 153.917 223.727 153.747 225.417 152.827L225.925 152.547C226.667 152.114 226.099 152.16 225.656 150.147C223.906 142.106 225.356 134.337 234.206 131.667C242.536 129.157 250.417 134.487 255.347 140.837C268.247 131.686 285.246 126.897 300.196 122.827C317.196 118.216 334.636 115.337 352.147 113.556ZM212.807 383.256C212.746 376.706 218.956 372.666 225.067 373.737C229.17 374.451 232.593 376.9 235.808 379.431L237.375 380.671C241.289 383.744 245.783 387.057 248.116 391.407C251.536 397.827 244.307 406.466 237.557 401.966C232.927 398.863 229.959 393.891 226.921 389.273L226.607 388.796C225.227 386.726 224.017 384.526 222.126 382.866L221.717 382.508C221.096 381.979 220.429 381.495 219.626 381.266C218.078 380.821 215.21 381.444 214.527 383.288L214.466 383.476C214.216 384.407 212.817 384.206 212.807 383.256Z" fill="#321F1B"/>
<path fill-rule="evenodd" clip-rule="evenodd" d="M431.884 503.932C439.443 502.88 447.571 498.599 454.791 502.078C458.166 503.704 459.768 509.265 457.486 512.356C454.001 517.077 450.403 517.858 444.746 518.312C440.505 518.652 436.241 518.677 432.011 518.188L430.935 518.056C423.387 517.082 415.542 514.975 409.695 509.903C408.499 508.865 409.112 506.623 410.647 506.299C417.591 504.838 424.855 504.911 431.884 503.932ZM422.987 486.526C422.984 486.465 423.077 486.465 423.08 486.526C423.263 490.846 424.477 494.851 426.721 498.547C426.752 498.6 426.671 498.647 426.64 498.595C424.395 494.896 423.17 490.85 422.987 486.526ZM446.814 397.367C454.366 401.957 465.872 412.66 457.748 424.04C448.186 434.073 434.419 422.569 427.634 417.366C421.343 413.334 414.275 423.705 420.112 428.413C469.136 464.708 489.031 398.567 450.634 391.97C446.406 391.243 444.836 395.947 446.814 397.367ZM485.464 346C487.237 346 488.933 346.602 490.478 347.716C491.998 348.812 493.374 350.412 494.52 352.407C496.689 356.183 498.045 361.396 498.045 367.16C498.045 372.925 496.689 378.138 494.52 381.914C493.374 383.909 491.998 385.509 490.478 386.605C488.933 387.718 487.237 388.32 485.464 388.32C483.691 388.32 481.995 387.718 480.45 386.605C478.93 385.509 477.554 383.909 476.408 381.914C474.239 378.138 472.883 372.925 472.883 367.16C472.883 361.396 474.239 356.183 476.408 352.407C477.554 350.412 478.93 348.812 480.45 347.716C481.995 346.602 483.691 346 485.464 346ZM403.347 351.88L404.014 351.753C407.909 351.045 409.877 351.283 413.269 353.938C415.818 355.933 415.088 359.862 413.269 361.96C410.1 365.616 407.005 364.968 402.665 365.108L402.36 365.119C398.743 365.266 395.123 365.369 391.503 365.424C390.513 365.44 389.522 365.436 388.532 365.442C388.637 374.603 383.355 381.578 376.399 386.881C371.903 390.31 366.216 386.354 364.612 382.086C363.285 378.554 363 374.211 363.688 370.344C363.943 368.918 364.474 367.371 365.286 366.052L365.515 365.698L365.478 365.192C365.469 365.067 365.478 364.946 365.474 364.821C359.016 364.428 352.596 363.781 346.178 362.967L344.039 362.69C338.561 361.965 330.516 361.732 326.083 358.169C325.943 358.055 325.993 357.806 326.141 357.727C328.578 356.414 331.05 356.489 333.776 356.368L334.167 356.349C337.131 356.196 340.088 356.068 343.05 355.967L346.015 355.874C353.597 355.657 361.186 355.289 368.761 354.886C370.078 354.816 371.395 354.733 372.714 354.652C374.093 354.074 375.559 353.728 377.007 353.664C378.207 353.61 379.361 353.776 380.446 354.121C383.212 353.907 385.978 353.674 388.74 353.424L391.503 353.168C395.401 352.797 399.499 352.635 403.347 351.88ZM451.215 283.22C459.548 279.125 469.68 279.025 478.262 282.414L478.831 282.644C487.499 286.241 497.943 294.549 495.681 304.898C493.612 314.37 478.755 312.765 478.002 303.812C473.205 297.166 462.448 295.708 455.686 299.934C451.585 302.498 448.77 306.815 446.846 311.169C445.206 314.877 444.897 319.456 442.378 322.686C442.296 322.791 442.132 322.81 442.013 322.782C434.501 321.044 434.327 309.107 435.608 303.317C437.469 294.899 443.442 287.042 451.215 283.22Z" fill="black"/>
</svg>
